<mxfile host="app.diagrams.net" agent="Mozilla/5.0 (Macintosh; Intel Mac OS X 10_15_7) AppleWebKit/537.36 (KHTML, like Gecko) Chrome/131.0.0.0 Safari/537.36" version="26.0.5">
  <diagram name="第 1 页" id="763_QrNTD4gQPvBKTCgc">
    <mxGraphModel dx="1026" dy="660" grid="1" gridSize="10" guides="1" tooltips="1" connect="1" arrows="1" fold="1" page="1" pageScale="1" pageWidth="827" pageHeight="1169" math="0" shadow="0">
      <root>
        <mxCell id="0" />
        <mxCell id="1" parent="0" />
        <mxCell id="j9-VzwVUTgFxk54gQeeg-1" value="ui&lt;span style=&quot;background-color: transparent; color: light-dark(rgb(0, 0, 0), rgb(255, 255, 255));&quot;&gt;Context&lt;/span&gt;" style="swimlane;fontStyle=0;childLayout=stackLayout;horizontal=1;startSize=30;horizontalStack=0;resizeParent=1;resizeParentMax=0;resizeLast=0;collapsible=1;marginBottom=0;whiteSpace=wrap;html=1;strokeWidth=1.12;" vertex="1" parent="1">
          <mxGeometry x="133" y="180" width="140" height="90" as="geometry" />
        </mxCell>
        <mxCell id="j9-VzwVUTgFxk54gQeeg-2" value="__proto__" style="text;strokeColor=default;fillColor=none;align=center;verticalAlign=middle;spacingLeft=4;spacingRight=4;overflow=hidden;points=[[0,0.5],[1,0.5]];portConstraint=eastwest;rotatable=0;whiteSpace=wrap;html=1;" vertex="1" parent="j9-VzwVUTgFxk54gQeeg-1">
          <mxGeometry y="30" width="140" height="30" as="geometry" />
        </mxCell>
        <mxCell id="j9-VzwVUTgFxk54gQeeg-3" value="..." style="text;strokeColor=default;fillColor=none;align=center;verticalAlign=middle;spacingLeft=4;spacingRight=4;overflow=hidden;points=[[0,0.5],[1,0.5]];portConstraint=eastwest;rotatable=0;whiteSpace=wrap;html=1;" vertex="1" parent="j9-VzwVUTgFxk54gQeeg-1">
          <mxGeometry y="60" width="140" height="30" as="geometry" />
        </mxCell>
        <mxCell id="j9-VzwVUTgFxk54gQeeg-5" value="UIContext" style="swimlane;fontStyle=0;childLayout=stackLayout;horizontal=1;startSize=30;horizontalStack=0;resizeParent=1;resizeParentMax=0;resizeLast=0;collapsible=1;marginBottom=0;whiteSpace=wrap;html=1;strokeWidth=1.12;" vertex="1" parent="1">
          <mxGeometry x="320" y="180" width="140" height="90" as="geometry" />
        </mxCell>
        <mxCell id="j9-VzwVUTgFxk54gQeeg-6" value="__proto__" style="text;strokeColor=default;fillColor=none;align=center;verticalAlign=middle;spacingLeft=4;spacingRight=4;overflow=hidden;points=[[0,0.5],[1,0.5]];portConstraint=eastwest;rotatable=0;whiteSpace=wrap;html=1;" vertex="1" parent="j9-VzwVUTgFxk54gQeeg-5">
          <mxGeometry y="30" width="140" height="30" as="geometry" />
        </mxCell>
        <mxCell id="j9-VzwVUTgFxk54gQeeg-7" value="prototype" style="text;strokeColor=default;fillColor=none;align=center;verticalAlign=middle;spacingLeft=4;spacingRight=4;overflow=hidden;points=[[0,0.5],[1,0.5]];portConstraint=eastwest;rotatable=0;whiteSpace=wrap;html=1;" vertex="1" parent="j9-VzwVUTgFxk54gQeeg-5">
          <mxGeometry y="60" width="140" height="30" as="geometry" />
        </mxCell>
        <mxCell id="j9-VzwVUTgFxk54gQeeg-8" value="Object" style="swimlane;fontStyle=0;childLayout=stackLayout;horizontal=1;startSize=30;horizontalStack=0;resizeParent=1;resizeParentMax=0;resizeLast=0;collapsible=1;marginBottom=0;whiteSpace=wrap;html=1;strokeWidth=1.12;" vertex="1" parent="1">
          <mxGeometry x="320" y="400" width="140" height="90" as="geometry" />
        </mxCell>
        <mxCell id="j9-VzwVUTgFxk54gQeeg-9" value="__proto__" style="text;strokeColor=default;fillColor=none;align=center;verticalAlign=middle;spacingLeft=4;spacingRight=4;overflow=hidden;points=[[0,0.5],[1,0.5]];portConstraint=eastwest;rotatable=0;whiteSpace=wrap;html=1;" vertex="1" parent="j9-VzwVUTgFxk54gQeeg-8">
          <mxGeometry y="30" width="140" height="30" as="geometry" />
        </mxCell>
        <mxCell id="j9-VzwVUTgFxk54gQeeg-10" value="prototype" style="text;strokeColor=default;fillColor=none;align=center;verticalAlign=middle;spacingLeft=4;spacingRight=4;overflow=hidden;points=[[0,0.5],[1,0.5]];portConstraint=eastwest;rotatable=0;whiteSpace=wrap;html=1;" vertex="1" parent="j9-VzwVUTgFxk54gQeeg-8">
          <mxGeometry y="60" width="140" height="30" as="geometry" />
        </mxCell>
        <mxCell id="j9-VzwVUTgFxk54gQeeg-11" value="UIContext.prototype" style="swimlane;fontStyle=0;childLayout=stackLayout;horizontal=1;startSize=30;horizontalStack=0;resizeParent=1;resizeParentMax=0;resizeLast=0;collapsible=1;marginBottom=0;whiteSpace=wrap;html=1;strokeWidth=1.12;" vertex="1" parent="1">
          <mxGeometry x="510" y="180" width="140" height="90" as="geometry" />
        </mxCell>
        <mxCell id="j9-VzwVUTgFxk54gQeeg-12" value="__proto__" style="text;strokeColor=default;fillColor=none;align=center;verticalAlign=middle;spacingLeft=4;spacingRight=4;overflow=hidden;points=[[0,0.5],[1,0.5]];portConstraint=eastwest;rotatable=0;whiteSpace=wrap;html=1;" vertex="1" parent="j9-VzwVUTgFxk54gQeeg-11">
          <mxGeometry y="30" width="140" height="30" as="geometry" />
        </mxCell>
        <mxCell id="j9-VzwVUTgFxk54gQeeg-13" value="contructor" style="text;strokeColor=default;fillColor=none;align=center;verticalAlign=middle;spacingLeft=4;spacingRight=4;overflow=hidden;points=[[0,0.5],[1,0.5]];portConstraint=eastwest;rotatable=0;whiteSpace=wrap;html=1;" vertex="1" parent="j9-VzwVUTgFxk54gQeeg-11">
          <mxGeometry y="60" width="140" height="30" as="geometry" />
        </mxCell>
        <mxCell id="j9-VzwVUTgFxk54gQeeg-14" value="Object.prototype" style="swimlane;fontStyle=0;childLayout=stackLayout;horizontal=1;startSize=30;horizontalStack=0;resizeParent=1;resizeParentMax=0;resizeLast=0;collapsible=1;marginBottom=0;whiteSpace=wrap;html=1;strokeWidth=1.12;" vertex="1" parent="1">
          <mxGeometry x="510" y="400" width="140" height="90" as="geometry" />
        </mxCell>
        <mxCell id="j9-VzwVUTgFxk54gQeeg-38" style="edgeStyle=orthogonalEdgeStyle;rounded=0;orthogonalLoop=1;jettySize=auto;html=1;exitX=1;exitY=0.5;exitDx=0;exitDy=0;strokeColor=#999999;" edge="1" parent="j9-VzwVUTgFxk54gQeeg-14" source="j9-VzwVUTgFxk54gQeeg-15">
          <mxGeometry relative="1" as="geometry">
            <mxPoint x="170" y="45" as="targetPoint" />
          </mxGeometry>
        </mxCell>
        <mxCell id="j9-VzwVUTgFxk54gQeeg-15" value="__proto__" style="text;strokeColor=default;fillColor=none;align=center;verticalAlign=middle;spacingLeft=4;spacingRight=4;overflow=hidden;points=[[0,0.5],[1,0.5]];portConstraint=eastwest;rotatable=0;whiteSpace=wrap;html=1;" vertex="1" parent="j9-VzwVUTgFxk54gQeeg-14">
          <mxGeometry y="30" width="140" height="30" as="geometry" />
        </mxCell>
        <mxCell id="j9-VzwVUTgFxk54gQeeg-16" value="contructor" style="text;strokeColor=default;fillColor=none;align=center;verticalAlign=middle;spacingLeft=4;spacingRight=4;overflow=hidden;points=[[0,0.5],[1,0.5]];portConstraint=eastwest;rotatable=0;whiteSpace=wrap;html=1;" vertex="1" parent="j9-VzwVUTgFxk54gQeeg-14">
          <mxGeometry y="60" width="140" height="30" as="geometry" />
        </mxCell>
        <mxCell id="j9-VzwVUTgFxk54gQeeg-18" value="" style="curved=1;endArrow=classic;html=1;rounded=0;exitX=1;exitY=0.5;exitDx=0;exitDy=0;entryX=-0.014;entryY=0.178;entryDx=0;entryDy=0;entryPerimeter=0;strokeColor=#7EA6E0;strokeWidth=1.2;" edge="1" parent="1" source="j9-VzwVUTgFxk54gQeeg-2" target="j9-VzwVUTgFxk54gQeeg-11">
          <mxGeometry width="50" height="50" relative="1" as="geometry">
            <mxPoint x="290" y="220" as="sourcePoint" />
            <mxPoint x="440" y="320" as="targetPoint" />
            <Array as="points">
              <mxPoint x="310" y="130" />
              <mxPoint x="470" y="130" />
            </Array>
          </mxGeometry>
        </mxCell>
        <mxCell id="j9-VzwVUTgFxk54gQeeg-20" value="" style="curved=1;endArrow=classic;html=1;rounded=0;exitX=1;exitY=0.5;exitDx=0;exitDy=0;entryX=-0.014;entryY=0.189;entryDx=0;entryDy=0;entryPerimeter=0;strokeColor=#999999;strokeWidth=1.2;" edge="1" parent="1" source="j9-VzwVUTgFxk54gQeeg-7" target="j9-VzwVUTgFxk54gQeeg-11">
          <mxGeometry width="50" height="50" relative="1" as="geometry">
            <mxPoint x="390" y="370" as="sourcePoint" />
            <mxPoint x="440" y="320" as="targetPoint" />
            <Array as="points">
              <mxPoint x="490" y="240" />
            </Array>
          </mxGeometry>
        </mxCell>
        <mxCell id="j9-VzwVUTgFxk54gQeeg-22" value="" style="curved=1;endArrow=classic;html=1;rounded=0;exitX=1;exitY=0.5;exitDx=0;exitDy=0;entryX=0.996;entryY=0.178;entryDx=0;entryDy=0;entryPerimeter=0;strokeColor=#7EA6E0;strokeWidth=1.2;" edge="1" parent="1" source="j9-VzwVUTgFxk54gQeeg-12" target="j9-VzwVUTgFxk54gQeeg-14">
          <mxGeometry width="50" height="50" relative="1" as="geometry">
            <mxPoint x="280" y="500" as="sourcePoint" />
            <mxPoint x="650" y="410" as="targetPoint" />
            <Array as="points">
              <mxPoint x="700" y="380" />
            </Array>
          </mxGeometry>
        </mxCell>
        <mxCell id="j9-VzwVUTgFxk54gQeeg-24" value="" style="curved=1;endArrow=classic;html=1;rounded=0;exitX=0;exitY=0.5;exitDx=0;exitDy=0;entryX=1;entryY=0.144;entryDx=0;entryDy=0;entryPerimeter=0;strokeWidth=1.2;strokeColor=#999999;" edge="1" parent="1" source="j9-VzwVUTgFxk54gQeeg-13" target="j9-VzwVUTgFxk54gQeeg-5">
          <mxGeometry width="50" height="50" relative="1" as="geometry">
            <mxPoint x="410" y="530" as="sourcePoint" />
            <mxPoint x="460" y="480" as="targetPoint" />
            <Array as="points">
              <mxPoint x="480" y="210" />
            </Array>
          </mxGeometry>
        </mxCell>
        <mxCell id="j9-VzwVUTgFxk54gQeeg-25" value="" style="curved=1;endArrow=classic;html=1;rounded=0;exitX=1;exitY=0.5;exitDx=0;exitDy=0;entryX=0.007;entryY=0.167;entryDx=0;entryDy=0;entryPerimeter=0;strokeColor=#FFB570;strokeWidth=1.2;" edge="1" parent="1" source="j9-VzwVUTgFxk54gQeeg-8" target="j9-VzwVUTgFxk54gQeeg-31">
          <mxGeometry width="50" height="50" relative="1" as="geometry">
            <mxPoint x="390" y="370" as="sourcePoint" />
            <mxPoint x="510" y="440" as="targetPoint" />
            <Array as="points">
              <mxPoint x="490" y="400" />
            </Array>
          </mxGeometry>
        </mxCell>
        <mxCell id="j9-VzwVUTgFxk54gQeeg-26" value="" style="curved=1;endArrow=classic;html=1;rounded=0;exitX=0;exitY=0.5;exitDx=0;exitDy=0;entryX=0.993;entryY=0.133;entryDx=0;entryDy=0;entryPerimeter=0;strokeWidth=1.2;strokeColor=#999999;" edge="1" parent="1" source="j9-VzwVUTgFxk54gQeeg-16" target="j9-VzwVUTgFxk54gQeeg-8">
          <mxGeometry width="50" height="50" relative="1" as="geometry">
            <mxPoint x="390" y="480" as="sourcePoint" />
            <mxPoint x="440" y="430" as="targetPoint" />
            <Array as="points">
              <mxPoint x="480" y="430" />
            </Array>
          </mxGeometry>
        </mxCell>
        <mxCell id="j9-VzwVUTgFxk54gQeeg-27" value="" style="curved=1;endArrow=classic;html=1;rounded=0;exitX=1;exitY=0.5;exitDx=0;exitDy=0;entryX=-0.007;entryY=0.167;entryDx=0;entryDy=0;entryPerimeter=0;strokeColor=#999999;strokeWidth=1.2;" edge="1" parent="1" source="j9-VzwVUTgFxk54gQeeg-10" target="j9-VzwVUTgFxk54gQeeg-14">
          <mxGeometry width="50" height="50" relative="1" as="geometry">
            <mxPoint x="390" y="480" as="sourcePoint" />
            <mxPoint x="440" y="430" as="targetPoint" />
            <Array as="points">
              <mxPoint x="490" y="460" />
            </Array>
          </mxGeometry>
        </mxCell>
        <mxCell id="j9-VzwVUTgFxk54gQeeg-31" value="Function.prototype" style="swimlane;fontStyle=0;childLayout=stackLayout;horizontal=1;startSize=30;horizontalStack=0;resizeParent=1;resizeParentMax=0;resizeLast=0;collapsible=1;marginBottom=0;whiteSpace=wrap;html=1;strokeWidth=1.12;" vertex="1" parent="1">
          <mxGeometry x="510" y="290" width="140" height="90" as="geometry" />
        </mxCell>
        <mxCell id="j9-VzwVUTgFxk54gQeeg-32" value="__proto__" style="text;strokeColor=default;fillColor=none;align=center;verticalAlign=middle;spacingLeft=4;spacingRight=4;overflow=hidden;points=[[0,0.5],[1,0.5]];portConstraint=eastwest;rotatable=0;whiteSpace=wrap;html=1;" vertex="1" parent="j9-VzwVUTgFxk54gQeeg-31">
          <mxGeometry y="30" width="140" height="30" as="geometry" />
        </mxCell>
        <mxCell id="j9-VzwVUTgFxk54gQeeg-33" value="contructor" style="text;strokeColor=default;fillColor=none;align=center;verticalAlign=middle;spacingLeft=4;spacingRight=4;overflow=hidden;points=[[0,0.5],[1,0.5]];portConstraint=eastwest;rotatable=0;whiteSpace=wrap;html=1;" vertex="1" parent="j9-VzwVUTgFxk54gQeeg-31">
          <mxGeometry y="60" width="140" height="30" as="geometry" />
        </mxCell>
        <mxCell id="j9-VzwVUTgFxk54gQeeg-34" value="Function" style="swimlane;fontStyle=0;childLayout=stackLayout;horizontal=1;startSize=30;horizontalStack=0;resizeParent=1;resizeParentMax=0;resizeLast=0;collapsible=1;marginBottom=0;whiteSpace=wrap;html=1;strokeWidth=1.12;" vertex="1" parent="1">
          <mxGeometry x="320" y="290" width="140" height="90" as="geometry" />
        </mxCell>
        <mxCell id="j9-VzwVUTgFxk54gQeeg-35" value="__proto__" style="text;strokeColor=default;fillColor=none;align=center;verticalAlign=middle;spacingLeft=4;spacingRight=4;overflow=hidden;points=[[0,0.5],[1,0.5]];portConstraint=eastwest;rotatable=0;whiteSpace=wrap;html=1;" vertex="1" parent="j9-VzwVUTgFxk54gQeeg-34">
          <mxGeometry y="30" width="140" height="30" as="geometry" />
        </mxCell>
        <mxCell id="j9-VzwVUTgFxk54gQeeg-36" value="prototype" style="text;strokeColor=default;fillColor=none;align=center;verticalAlign=middle;spacingLeft=4;spacingRight=4;overflow=hidden;points=[[0,0.5],[1,0.5]];portConstraint=eastwest;rotatable=0;whiteSpace=wrap;html=1;" vertex="1" parent="j9-VzwVUTgFxk54gQeeg-34">
          <mxGeometry y="60" width="140" height="30" as="geometry" />
        </mxCell>
        <mxCell id="j9-VzwVUTgFxk54gQeeg-37" value="" style="curved=1;endArrow=classic;html=1;rounded=0;exitX=0;exitY=0.5;exitDx=0;exitDy=0;entryX=1.007;entryY=0.156;entryDx=0;entryDy=0;entryPerimeter=0;strokeWidth=1.2;strokeColor=#999999;" edge="1" parent="1" source="j9-VzwVUTgFxk54gQeeg-33" target="j9-VzwVUTgFxk54gQeeg-34">
          <mxGeometry width="50" height="50" relative="1" as="geometry">
            <mxPoint x="520" y="265" as="sourcePoint" />
            <mxPoint x="469" y="202" as="targetPoint" />
            <Array as="points">
              <mxPoint x="490" y="330" />
            </Array>
          </mxGeometry>
        </mxCell>
        <mxCell id="j9-VzwVUTgFxk54gQeeg-39" value="null" style="text;html=1;align=center;verticalAlign=middle;resizable=0;points=[];autosize=1;strokeColor=none;fillColor=none;" vertex="1" parent="1">
          <mxGeometry x="675" y="430" width="40" height="30" as="geometry" />
        </mxCell>
        <mxCell id="j9-VzwVUTgFxk54gQeeg-41" value="" style="curved=1;endArrow=classic;html=1;rounded=0;exitX=1;exitY=0.5;exitDx=0;exitDy=0;entryX=1.004;entryY=0.122;entryDx=0;entryDy=0;entryPerimeter=0;strokeWidth=1.2;strokeColor=#999999;" edge="1" parent="1" source="j9-VzwVUTgFxk54gQeeg-32" target="j9-VzwVUTgFxk54gQeeg-14">
          <mxGeometry width="50" height="50" relative="1" as="geometry">
            <mxPoint x="530" y="495" as="sourcePoint" />
            <mxPoint x="481" y="434" as="targetPoint" />
            <Array as="points">
              <mxPoint x="680" y="370" />
            </Array>
          </mxGeometry>
        </mxCell>
        <mxCell id="j9-VzwVUTgFxk54gQeeg-42" value="" style="curved=1;endArrow=classic;html=1;rounded=0;exitX=1;exitY=0.5;exitDx=0;exitDy=0;entryX=-0.004;entryY=0.144;entryDx=0;entryDy=0;entryPerimeter=0;strokeColor=#FFB570;strokeWidth=1.2;" edge="1" parent="1" source="j9-VzwVUTgFxk54gQeeg-35" target="j9-VzwVUTgFxk54gQeeg-31">
          <mxGeometry width="50" height="50" relative="1" as="geometry">
            <mxPoint x="520" y="375" as="sourcePoint" />
            <mxPoint x="471" y="314" as="targetPoint" />
            <Array as="points" />
          </mxGeometry>
        </mxCell>
        <mxCell id="j9-VzwVUTgFxk54gQeeg-43" value="" style="curved=1;endArrow=classic;html=1;rounded=0;exitX=1;exitY=0.5;exitDx=0;exitDy=0;entryX=-0.011;entryY=0.167;entryDx=0;entryDy=0;entryPerimeter=0;strokeColor=#999999;strokeWidth=1.2;" edge="1" parent="1" source="j9-VzwVUTgFxk54gQeeg-36" target="j9-VzwVUTgFxk54gQeeg-31">
          <mxGeometry width="50" height="50" relative="1" as="geometry">
            <mxPoint x="461" y="365" as="sourcePoint" />
            <mxPoint x="510" y="305" as="targetPoint" />
            <Array as="points">
              <mxPoint x="490" y="340" />
            </Array>
          </mxGeometry>
        </mxCell>
        <mxCell id="j9-VzwVUTgFxk54gQeeg-44" value="" style="curved=1;endArrow=classic;html=1;rounded=0;entryX=0.011;entryY=0.156;entryDx=0;entryDy=0;entryPerimeter=0;exitX=1;exitY=0.5;exitDx=0;exitDy=0;strokeColor=#FFB570;strokeWidth=1.2;" edge="1" parent="1" source="j9-VzwVUTgFxk54gQeeg-6" target="j9-VzwVUTgFxk54gQeeg-31">
          <mxGeometry width="50" height="50" relative="1" as="geometry">
            <mxPoint x="470" y="230" as="sourcePoint" />
            <mxPoint x="510" y="300" as="targetPoint" />
            <Array as="points" />
          </mxGeometry>
        </mxCell>
      </root>
    </mxGraphModel>
  </diagram>
</mxfile>
